<?xml version="1.0" encoding="utf-8"?>
<!-- Generator: Adobe Illustrator 23.0.1, SVG Export Plug-In . SVG Version: 6.00 Build 0)  -->
<svg version="1.1" id="Layer_1" xmlns="http://www.w3.org/2000/svg" xmlns:xlink="http://www.w3.org/1999/xlink" x="0px" y="0px"
	 viewBox="0 0 38.5 38.7" height="56px" width="56px" style="enable-background:new 0 0 38.5 38.7;" xml:space="preserve">
<style type="text/css">
	.st0{clip-path:url(#SVGID_2_);}
	.st1{clip-path:url(#SVGID_4_);}
	.st2{clip-path:url(#SVGID_6_);}
	.st3{clip-path:url(#SVGID_8_);}
	.st4{clip-path:url(#SVGID_10_);}
	.st5{clip-path:url(#SVGID_12_);}
</style>
<g>
	<g>
		<defs>
			<path id="SVGID_1_" d="M19.7,0.7c3,0.1,6-0.1,9,0.2c5.2,0.5,9.1,4.3,9.5,9.5c0.4,6.2,0.5,12.4,0,18.6c-0.4,5.1-4.3,9.1-9.4,9.4
				c-6.1,0.4-12.3,0.4-18.4,0c-5.2-0.4-9.1-4.3-9.5-9.5c-0.4-6.2-0.5-12.3,0-18.5c0.4-5.2,4.4-9.1,9.6-9.5
				C13.5,0.6,16.6,0.8,19.7,0.7 M19.5,35.1c2.9-0.1,5.8,0.1,8.7-0.2c3.8-0.3,6.3-2.7,6.5-6.5c0.3-5.8,0.3-11.6,0-17.4
				c-0.2-3.5-2.3-5.8-5.7-6.4c-1-0.2-2-0.3-3-0.3c-5,0-9.9-0.2-14.9,0.1c-4,0.2-6.6,2.7-6.8,6.7C4,16.8,4,22.4,4.3,28
				c0.2,4.2,2.6,6.5,6.8,6.9C13.9,35.1,16.7,35,19.5,35.1"/>
		</defs>
		<clipPath id="SVGID_2_">
			<use xlink:href="#SVGID_1_"  style="overflow:visible;"/>
		</clipPath>
		<g class="st0">
			<defs>
				<rect id="SVGID_3_" x="-1272.5" y="-12213.3" width="1440" height="12597"/>
			</defs>
			<clipPath id="SVGID_4_">
				<use xlink:href="#SVGID_3_"  style="overflow:visible;"/>
			</clipPath>
			<rect x="-4.5" y="-4.3" class="st1" width="48" height="48"/>
		</g>
	</g>
	<g>
		<defs>
			<path id="SVGID_5_" d="M9.5,19.1c0-5.1,4.4-9.4,9.5-9.4c5.2,0,9.6,4.4,9.5,9.6c-0.1,5.1-4.4,9.4-9.5,9.4
				C13.8,28.7,9.5,24.4,9.5,19.1 M13,19.1c0,3.4,2.6,6.1,5.9,6.1c3.3,0,6-2.6,6.1-5.9c0-3.4-2.6-6.1-6-6.1
				C15.7,13.2,13,15.8,13,19.1"/>
		</defs>
		<clipPath id="SVGID_6_">
			<use xlink:href="#SVGID_5_"  style="overflow:visible;"/>
		</clipPath>
		<g class="st2">
			<defs>
				<rect id="SVGID_7_" x="-1272.5" y="-12213.3" width="1440" height="12597"/>
			</defs>
			<clipPath id="SVGID_8_">
				<use xlink:href="#SVGID_7_"  style="overflow:visible;"/>
			</clipPath>
			<rect x="4.5" y="4.7" class="st3" width="29" height="29"/>
		</g>
	</g>
	<g>
		<defs>
			<path id="SVGID_9_" d="M31.5,9.7c0,1.1-0.9,2-2,2c-1.1,0-2-1-2-2c0-1.1,0.9-2,2-2C30.6,7.7,31.5,8.6,31.5,9.7"/>
		</defs>
		<clipPath id="SVGID_10_">
			<use xlink:href="#SVGID_9_"  style="overflow:visible;"/>
		</clipPath>
		<g class="st4">
			<defs>
				<rect id="SVGID_11_" x="-1272.5" y="-12213.3" width="1440" height="12597"/>
			</defs>
			<clipPath id="SVGID_12_">
				<use xlink:href="#SVGID_11_"  style="overflow:visible;"/>
			</clipPath>
			<rect x="22.5" y="2.7" class="st5" width="14" height="14"/>
		</g>
	</g>
</g>
</svg>
