<?xml version="1.0" encoding="utf-8"?>
<!-- Generator: Adobe Illustrator 23.0.1, SVG Export Plug-In . SVG Version: 6.00 Build 0)  -->
<svg version="1.1" id="Layer_1" xmlns="http://www.w3.org/2000/svg" xmlns:xlink="http://www.w3.org/1999/xlink" x="0px" y="0px"
	 viewBox="0 0 47 38.7" style="enable-background:new 0 0 47 38.7;" xml:space="preserve">
<style type="text/css">
	.st0{clip-path:url(#SVGID_2_);}
	.st1{clip-path:url(#SVGID_4_);}
</style>
<g>
	<defs>
		<path id="SVGID_1_" d="M42.2,9.8c0.6,13.5-9.5,28.5-27.4,28.5C9.3,38.4,4.3,36.8,0,34c5.1,0.6,10.2-0.8,14.3-4
			c-4.2-0.1-7.8-2.9-9-6.7c1.5,0.3,3,0.2,4.4-0.2c-4.6-0.9-7.8-5.1-7.7-9.5c1.3,0.7,2.8,1.1,4.4,1.2C2,12.1,0.7,6.4,3.3,2.1
			c4.8,5.8,11.9,9.6,19.9,10c-1.4-6,3.2-11.8,9.4-11.8c2.8,0,5.3,1.2,7,3c2.2-0.4,4.3-1.2,6.1-2.3c-0.7,2.2-2.2,4.1-4.2,5.3
			c1.9-0.2,3.8-0.7,5.5-1.5C45.7,6.8,44.1,8.5,42.2,9.8z"/>
	</defs>
	<clipPath id="SVGID_2_">
		<use xlink:href="#SVGID_1_"  style="overflow:visible;"/>
	</clipPath>
	<g class="st0">
		<defs>
			<rect id="SVGID_3_" x="-1333" y="-12213.6" width="1440" height="12597"/>
		</defs>
		<clipPath id="SVGID_4_">
			<use xlink:href="#SVGID_3_"  style="overflow:visible;"/>
		</clipPath>
		<rect x="-5" y="-4.6" class="st1" width="57" height="48"/>
	</g>
</g>
</svg>
