<svg xmlns="http://www.w3.org/2000/svg" xmlns:xlink="http://www.w3.org/1999/xlink" width="500" zoomAndPan="magnify" viewBox="0 0 375 374.999991" height="500" preserveAspectRatio="xMidYMid meet" version="1.0"><defs><g/></defs><path fill="rgb(100%, 37.249756%, 12.159729%)" d="M 187.5 0 C 83.945312 0 0 83.945312 0 187.5 C 0 291.054688 83.945312 375 187.5 375 C 291.054688 375 375 291.054688 375 187.5 C 375 83.945312 291.054688 0 187.5 0 " fill-opacity="1" fill-rule="nonzero"/><g fill="rgb(0%, 0%, 0%)" fill-opacity="1"><g transform="translate(93.08846, 148.206531)"><g><path d="M 45.222656 -11.191406 L 48.488281 0 L 68.535156 0 L 45.378906 -77.703125 L 24.398438 -77.703125 L 0.933594 0 L 21.136719 0 L 24.242188 -11.191406 Z M 39.941406 -29.371094 L 29.839844 -29.371094 L 34.8125 -51.75 Z M 39.941406 -29.371094 "/></g></g></g><g fill="rgb(0%, 0%, 0%)" fill-opacity="1"><g transform="translate(162.556642, 148.206531)"><g><path d="M 42.117188 -38.695312 L 61.386719 -77.703125 L 40.40625 -77.703125 L 31.546875 -57.96875 L 22.535156 -77.703125 L 1.554688 -77.703125 L 20.824219 -38.695312 L 1.554688 0 L 23.15625 0 L 31.546875 -18.960938 L 39.785156 0 L 61.386719 0 Z M 42.117188 -38.695312 "/></g></g></g><g fill="rgb(0%, 0%, 0%)" fill-opacity="1"><g transform="translate(224.87598, 148.206531)"><g><path d="M 25.019531 -58.898438 L 52.683594 -58.898438 L 52.683594 -77.703125 L 4.351562 -77.703125 L 4.351562 0 L 52.683594 0 L 52.683594 -18.804688 L 25.019531 -18.804688 L 25.019531 -29.683594 L 52.683594 -29.683594 L 52.683594 -48.023438 L 25.019531 -48.023438 Z M 25.019531 -58.898438 "/></g></g></g><g fill="rgb(0%, 0%, 0%)" fill-opacity="1"><g transform="translate(58.100007, 279.350007)"><g><path d="M 28.652344 -77.855469 L 4.359375 -77.855469 L 4.359375 0 L 28.652344 0 C 48.738281 0 59.792969 -14.015625 59.792969 -38.925781 C 59.792969 -63.839844 48.738281 -77.855469 28.652344 -77.855469 Z M 30.675781 -20.710938 L 25.070312 -20.710938 L 25.070312 -57.300781 L 30.675781 -57.300781 C 36.4375 -57.300781 39.550781 -50.605469 39.550781 -38.925781 C 39.550781 -27.25 36.4375 -20.710938 30.675781 -20.710938 Z M 30.675781 -20.710938 "/></g></g></g><g fill="rgb(0%, 0%, 0%)" fill-opacity="1"><g transform="translate(121.317726, 279.350007)"><g><path d="M 52.007812 -33.632812 C 57.144531 -37.683594 59.792969 -44.222656 59.792969 -52.941406 C 59.792969 -68.824219 51.230469 -77.855469 36.125 -77.855469 L 4.359375 -77.855469 L 4.359375 0 L 25.070312 0 L 25.070312 -27.871094 L 32.078125 -27.871094 C 37.527344 -26.316406 40.484375 -21.957031 40.484375 -15.257812 L 40.484375 0 L 59.480469 0 L 59.480469 -12.769531 C 59.480469 -22.109375 56.835938 -29.117188 52.007812 -33.632812 Z M 34.410156 -46.089844 L 25.070312 -46.089844 L 25.070312 -59.015625 L 34.410156 -59.015625 C 38.773438 -59.015625 41.417969 -56.679688 41.417969 -52.472656 C 41.417969 -48.425781 38.773438 -46.089844 34.410156 -46.089844 Z M 34.410156 -46.089844 "/></g></g></g><g fill="rgb(0%, 0%, 0%)" fill-opacity="1"><g transform="translate(184.846863, 279.350007)"><g><path d="M 45.3125 -11.210938 L 48.582031 0 L 68.667969 0 L 45.46875 -77.855469 L 24.445312 -77.855469 L 0.933594 0 L 21.175781 0 L 24.289062 -11.210938 Z M 40.019531 -29.429688 L 29.894531 -29.429688 L 34.878906 -51.851562 Z M 40.019531 -29.429688 "/></g></g></g><g fill="rgb(0%, 0%, 0%)" fill-opacity="1"><g transform="translate(254.448634, 279.350007)"><g><path d="M 42.199219 -38.773438 L 61.503906 -77.855469 L 40.484375 -77.855469 L 31.609375 -58.082031 L 22.578125 -77.855469 L 1.558594 -77.855469 L 20.863281 -38.773438 L 1.558594 0 L 23.199219 0 L 31.609375 -18.996094 L 39.863281 0 L 61.503906 0 Z M 42.199219 -38.773438 "/></g></g></g><path stroke-linecap="butt" transform="matrix(3.75, 0, 0, 3.75, 127.499996, 175.874988)" fill="none" stroke-linejoin="miter" d="M 3.750001 0.00000307977 L 28.250003 0.00000307977 " stroke="rgb(0%, 0%, 0%)" stroke-width="1" stroke-opacity="1" stroke-miterlimit="4"/><path stroke-linecap="butt" transform="matrix(3.75, 0, 0, 3.75, 127.499996, 175.874988)" fill="none" stroke-linejoin="round" d="M 0.500001 -1.499997 L 3.500001 -1.499997 L 3.500001 1.500003 L 0.500001 1.500003 Z M 0.500001 -1.499997 " stroke="rgb(0%, 0%, 0%)" stroke-width="1" stroke-opacity="1" stroke-miterlimit="4"/><path stroke-linecap="butt" transform="matrix(3.75, 0, 0, 3.75, 247.499988, 175.874988)" fill-opacity="1" fill="rgb(0%, 0%, 0%)" fill-rule="nonzero" stroke-linejoin="round" d="M -3.499997 -1.499997 L -0.499997 -1.499997 L -0.499997 1.500003 L -3.499997 1.500003 Z M -3.499997 -1.499997 " stroke="rgb(0%, 0%, 0%)" stroke-width="1" stroke-opacity="1" stroke-miterlimit="4"/></svg>