<?xml version="1.0" encoding="UTF-8"?>
<svg width="700pt" height="700pt" version="1.1" viewBox="0 0 700 700" xmlns="http://www.w3.org/2000/svg" xmlns:xlink="http://www.w3.org/1999/xlink">
 
 <g xmlns="http://www.w3.org/2000/svg">
  <path d="m621.23 352.4c-1.957-0.64453-4.2578-0.85938-6.4336-0.64844-1.5898-3.5469-4.3516-5.8594-7.5-7.0586l22.523-90.008c0.57812-2.3047-0.76562-4.6562-3.043-5.3359l-147.91-44.027v-67.562c0-2.4531-1.9922-4.4453-4.4453-4.4453h-279.95c-2.4531 0-4.4453 1.9922-4.4453 4.4453v97.762h-115.54c-2.4531 0-4.4453 1.9922-4.4453 4.4453v133.31c0 2.4531 1.9922 4.4453 4.4453 4.4453h28.754c-1.3281 3.2031-2.0898 6.6367-2.0898 10.172v30.172c0 6.7773 3.0391 13.094 8.332 17.336l13.887 11.109v109.05c0 2.4531 1.9922 4.4453 4.4453 4.4453s4.4453-1.9922 4.4453-4.4453l-0.003906-111.19c0-1.3516-0.61328-2.625-1.668-3.4688l-15.555-12.441c-3.1719-2.543-4.9961-6.332-4.9961-10.398v-30.172c0-4.3047 1.5625-8.457 4.4844-11.777 0.50391-0.60547 1.0742-1.1719 1.7539-1.7461 3.5312-3.0469 7.9062-6.7578 12.465-10.52 7.543-6.2539 13.793-11.203 18.066-14.301 1.0469-0.75391 2.3672-1.043 3.625-0.78125 0.65234 0.13281 1.8672 0.55078 2.6289 1.8164 0.64453 1.0742 1.1719 2.3242 1.5742 3.707 0.003907 0.019531 0 0.03125 0.003907 0.050781 0.45312 1.6133 0.6875 3.4297 0.72266 5.5508 0.070313 3.9766-1.3164 7.9258-3.9141 11.145l-1.7852 2.2344c-0.007812 0.011718-0.023437 0.027343-0.03125 0.039062l-10.199 12.789c-1.25 1.6992-4.0352 6.2109-2.9062 11.473 0.52734 2.457 2.1406 5.9414 6.6289 8.4609l1.75 1.0977c6.8438 4.2539 12.754 7.9258 13.98 24.066 0.17969 2.332 2.125 4.1055 4.4258 4.1055 0.10938 0 0.22656-0.003907 0.34375-0.011719 2.4492-0.1875 4.2812-2.3203 4.0938-4.7695-1.5742-20.637-10.762-26.352-18.152-30.941l-1.8711-1.168c-1.457-0.81641-2.3008-1.7305-2.5117-2.707-0.30078-1.4141 0.55078-3.2188 1.2695-4.1992l4.8906-6.1289c2.3828 4.5898 6.1367 7.8594 10.973 9.3398 1.8633 0.5625 3.8164 0.83984 5.7852 0.83984 3.7461 0 7.4688-1.0859 10.711-2.8945 2.6133 4.2344 6.6133 7.2344 11.586 8.4688 1.6211 0.40625 3.2852 0.59375 4.9375 0.59375 3.4648 0 6.8359-0.9375 9.7617-2.5195 2.8711 3.4961 6.9414 5.7578 11.617 6.2422 0.64453 0.066406 1.2852 0.097656 1.918 0.097656 2.4258 0 4.8047-0.48828 7-1.3633l-0.085937 17.973c0 10.957-4.2578 14.273-15.645 23.145l-0.41797 0.32422c-1.082 0.83594-1.7148 2.1367-1.7148 3.5039v106.34c0 2.4531 1.9922 4.4453 4.4453 4.4453 2.4531 0 4.4453-1.9922 4.4453-4.4453v-104.16c11.113-8.6797 17.773-14.406 17.773-29.125l0.12891-25.938c1.0234-1.875 1.7852-3.9141 2.0781-6.3164l1.0703-12.207h36.715c2.4531 0 4.4453-1.9922 4.4453-4.4453v-44.438h35.551v79.031c-0.09375 0.003906-0.20312 0.011718-0.29688 0.019531l-1.0703 0.054687c-6.7227 0.39062-12.895 3.6914-16.922 9.0391l-15.176 19.965c-3.6055 4.6523-4.832 10.617-3.3789 16.32l3.5547 14.297-51.793 85.609c-1.2695 2.1016-0.60156 4.832 1.5039 6.1016 0.71875 0.43359 1.5117 0.64453 2.2969 0.64453 1.5039 0 2.9688-0.76562 3.8047-2.1406l52.746-87.188c0.61328-1.0117 0.79688-2.2227 0.51172-3.3711l-4.0078-16.113c-0.78125-3.0625-0.12891-6.2383 1.8086-8.7461l15.211-20.012c2.4609-3.2695 6.2344-5.2852 10.328-5.5234l1.0352-0.054688c1.3555-0.070312 2.8125-0.14844 4.2266-0.23828 0.023438 0 0.039063 0.011719 0.058594 0.011719 0.035156 0 0.066406-0.023438 0.10156-0.023438 0.019531 0 0.035156 0 0.054687-0.003906 2.457-0.085937 5.0352-0.20703 7.6914-0.33594l0.43359-0.023438c7.7539-0.34766 14.543-0.47656 19.129-0.35156 0.84375 0.019531 1.6523 0.39453 2.2188 1.0312 0.28906 0.32812 0.76172 1.0234 0.65625 1.9727-0.09375 0.92578-0.36328 1.9648-0.79688 3.0898-0.003906 0.007812 0 0.011718-0.003906 0.023437-0.57031 1.3047-1.3008 2.5859-2.2266 3.8672-1.8516 2.5156-4.6133 4.3359-7.7617 5.125l-2.3438 0.58594c-0.011719 0.003906-0.027344 0.007812-0.042969 0.007812l-13.25 3.3203-0.55859 0.16016c-5.9258 1.6523-7.7422 5.0078-7.7891 14.363 0 0.77734 0.011718 1.5586 0.03125 2.3438 0.027344 1.418 0.058594 2.8555-0.027344 4.4258-0.18359 4.9375-1.6367 10.906-10.922 21.02-1.6602 1.8086-1.5391 4.6211 0.26953 6.2773 0.85156 0.78125 1.9336 1.168 3.0039 1.168 1.2031 0 2.3984-0.48438 3.2734-1.4414 1.6992-1.8516 3.1211-3.5781 4.4141-5.25v77.656c0 2.4531 1.9922 4.4453 4.4453 4.4453h31.105c2.4531 0 4.4453-1.9922 4.4453-4.4453v-38.273c5.7109-1.375 9.9023-4.25 13.734-9.3242l8.4844-9.9531v57.555c0 2.4531 1.9922 4.4453 4.4453 4.4453s4.4453-1.9922 4.4453-4.4453v-67.559c0.16406-0.15625 0.31641-0.28906 0.48438-0.46094l14.312-15.727c5.0469-6.3086 5.6523-13.352 1.6602-19.332-1.625-2.4336-4.2266-4.7461-6.9727-6.2539 2.4492-7.9688-1.457-14.703-6.2852-18.445-1.6914-1.3164-3.625-2.3555-5.5938-3.0391 1.1055-3.6094 1.0586-7.1445-0.13281-10.496 1.2734-0.58984 2.4297-1.4023 3.4453-2.3984 1.7852 0.75 3.7539 1.1602 5.7539 1.1602 1.1562 0 2.3164-0.13281 3.4492-0.41016 3.0391-0.74219 5.4961-2.4727 7.3398-4.8047 1.9375 0.86719 4.0742 1.3359 6.2109 1.3359 1.3867 0 2.7734-0.19141 4.1016-0.59375 2.6914-0.8125 4.918-2.3867 6.5742-4.5664l1.5078 1.8789c0.38672 0.51953 0.55469 1.0078 0.58594 1.2266-0.011719 0.050782-0.023438 0.09375-0.035157 0.14063-0.125 0.15234-0.39062 0.38281-0.94531 0.70703l-1.0586 0.66406c-4.6875 2.9141-11.105 6.9062-12.137 20.609-0.1875 2.4492 1.6484 4.582 4.0977 4.7656 0.10938 0.007813 0.22656 0.011719 0.33594 0.011719 2.3008 0 4.2539-1.7773 4.4258-4.1094 0.50391-6.6641 2.2539-9.4883 4.7773-11.539l1.7539 19.625c0.28906 2.4961 1.1016 4.7695 2.3672 6.7891l-0.03125 21.859c0 5.3281 1.707 10.191 4.4453 14.723v74.242c0 2.4531 1.9922 4.4453 4.4453 4.4453s4.4453-1.9922 4.4453-4.4453v-63.426c2.7656 2.6758 5.7734 5.25 8.8867 7.7266v55.699c0 2.4531 1.9922 4.4453 4.4453 4.4453 2.4531 0 4.4453-1.9922 4.4453-4.4453l-0.007812-57.859c0-1.3672-0.63281-2.668-1.7109-3.5078-10.652-8.2969-20.508-17.383-20.508-27.59l0.027343-14.992c1.875 0.64844 3.832 1.0977 5.8438 1.0977 0.80859 0 1.6211-0.058593 2.4297-0.17188 4.1406-0.58594 7.6641-2.5977 10.211-5.6641 2.7188 1.4141 5.8164 2.2578 9.0039 2.2578 1.5547 0 3.1211-0.18359 4.6445-0.55469 4.6289-1.1367 8.3672-3.8828 10.852-7.7695 3 1.6133 6.4219 2.5859 9.8594 2.5859 1.8594 0 3.7109-0.25781 5.4688-0.78906 4.4297-1.3516 7.9219-4.2852 10.191-8.4062l4.1562 5.1992c0.95703 1.2852 1.4336 2.7539 1.2266 3.75-0.17188 0.83203-0.91406 1.6172-2.4023 2.4609l-1.5391 0.96094c-6.9453 4.3008-15.598 9.6562-17.039 29.035-0.18359 2.4492 1.6523 4.5781 4.1016 4.7578 2.4609 0.16406 4.5781-1.6562 4.7578-4.1016 1.1094-14.863 6.5547-18.238 12.859-22.141l1.4258-0.89844c4.4922-2.5391 6.0312-5.8867 6.5312-8.2461 0.74609-3.543-0.27734-7.5156-2.8828-11.016l-9.3594-11.719c-0.03125-0.039062-0.0625-0.074219-0.09375-0.11719l-1.6523-2.0703c-2.3672-2.9766-3.6367-6.5898-3.5664-10.172 0.03125-1.8945 0.25781-3.5664 0.68359-5.125 0.35156-1.2852 0.83203-2.4297 1.4453-3.4453 0.58594-0.99219 1.5078-1.3633 2.1719-1.5078 1.1094-0.22656 2.2734 0.019531 3.1758 0.66406 3.9531 2.8672 9.7617 7.457 16.781 13.277 4.2539 3.5469 8.3711 7.0469 11.645 9.8281 3.6133 3.0938 5.6875 7.5938 5.6875 12.355v28.086c0 3.707-1.6562 7.1484-4.4258 9.3633l-15.996 11.863c-1.125 0.83984-1.793 2.168-1.793 3.5742v66.746c0 2.4531 1.9922 4.4453 4.4453 4.4453 2.4531 0 4.4453-1.9922 4.4453-4.4453v-64.508l14.328-10.629c5.0156-4 7.8906-9.9805 7.8906-16.406l-0.003906-28.086c0-7.3594-3.207-14.32-8.8086-19.117-2.9062-2.4766-6.4844-5.5117-10.219-8.6367l-1.5586-31.695c-0.85938-10.855-10.469-16.289-19.406-16.273-8.4883 0.125-15.039 4.6484-17.473 11.551-1.4258-0.16016-3.0703-0.26562-4.8789-0.22266l9.168-20.484 52.059 14.285c-0.45312 0.39062-0.97266 0.83594-1.3828 1.1953-2.1406 1.8438-3.7695 4.0352-4.8008 6.4336-1.0547 2.3477-1.5898 4.875-1.5898 7.5117v18.84c0 4.6719 2.0234 9.0039 5.5586 11.941l12.219 12.688v131.61c0 2.4531 1.9922 4.4453 4.4453 4.4453s4.4453-1.9922 4.4453-4.4453v-133.4c0-1.1523-0.44531-2.2539-1.2383-3.0781l-13.641-14.176c-0.13672-0.14062-0.28125-0.27734-0.43359-0.39453-1.5625-1.2461-2.457-3.1367-2.457-5.1914v-18.84c0-1.375 0.26953-2.6758 0.83984-3.9375 0.51953-1.2188 1.3516-2.3164 2.4922-3.3008 2.1523-1.8867 4.875-4.2109 7.7109-6.5664 4.4453-3.75 8.3828-6.8984 11.074-8.8594 0.38281-0.28125 0.77734-0.23438 0.92969-0.20312 0.23438 0.050781 0.40625 0.16016 0.57031 0.44141 0.30469 0.48828 0.57031 1.1172 0.74609 1.7695 0.22656 0.875 0.35937 1.9453 0.39062 3.1875 0.058594 2.0547-0.67187 4.1328-2.0781 5.8984l-7.5469 9.4961c-1.8828 2.6562-2.6133 5.7578-2.0078 8.5078 0.41016 1.8477 1.6094 4.457 4.8086 6.2734l1.1641 0.74219c4 2.5273 7.1602 4.5273 7.8516 13.73 0.1875 2.4453 2.2539 4.2578 4.7656 4.0977 2.4492-0.1875 4.2812-2.3164 4.0977-4.7656-1.0273-13.656-7.3438-17.656-11.957-20.57l-1.2891-0.81641c-0.63281-0.35937-0.76172-0.60937-0.76172-0.60937-0.03125-0.13672 0.089843-0.75 0.42969-1.25l1.5547-1.957c1.6562 2.1758 3.8828 3.7461 6.5781 4.5508 1.3242 0.39453 2.7031 0.58203 4.0742 0.58203 2.1328 0 4.25-0.46484 6.1484-1.3047 1.832 2.3125 4.2578 4.0234 7.2578 4.7578 1.1602 0.28516 2.3359 0.42188 3.5078 0.42188 1.9648 0 3.8867-0.39844 5.6406-1.1406 1.4453 1.4219 3.1953 2.4883 5.2344 3.0586 1.1484 0.32031 2.3203 0.47656 3.4961 0.47656 0.32422 0 0.64063-0.054688 0.96484-0.078125l0.007813 6.8281c0 6.9414-0.83984 9.3438-7.1367 14.273-1.0742 0.84375-1.7031 2.1328-1.7031 3.5v137.84c0 2.4531 1.9922 4.4453 4.4453 4.4453 2.4531 0 4.4453-1.9922 4.4453-4.4453l-0.003906-135.73c6.8125-5.75 8.8438-10.535 8.8438-19.902l-0.035156-11.133c1.6797-1.9023 2.7422-4.2656 3.043-6.9062l1.3867-16.02c0.15234-6.6836-3.0273-11.594-8.7188-13.469zm-193.86 46.684-6.4062-8.0117c-1.3789-1.7188-2.1055-3.8008-2.0469-5.8477 0.035156-1.2617 0.16797-2.2578 0.42969-3.1523 0.1875-0.69922 0.46094-1.3672 0.75-1.8672 0.12109-0.19922 0.3125-0.32422 0.57031-0.37891 0.15234-0.03125 0.55078-0.078125 0.94531 0.21484 2.7266 1.9648 6.7109 5.1094 11.188 8.8516l1.8398 1.5508c2.0742 1.75 4.0312 3.3984 5.7148 4.8438-1.6484-0.078125-3.3008-0.003906-4.8086 0.25-3.1719 0.53125-5.9297 1.7617-8.1758 3.5469zm-7.9258-35.898c0.1875-3.7539 4.6289-3.9336 5.1406-3.9414 0.44922 0 5.2109 0.023437 5.5312 3.9414l0.62109 12.613c-1.3594-1.0586-2.7031-2.0859-3.9297-2.9648-2.1289-1.5391-4.7812-2.1406-7.3633-1.7695zm29.75 23.867c-0.86328 0.64062-1.6562 1.3555-2.3867 2.1445-0.15625-0.14062-0.26172-0.3125-0.42188-0.44922-1.75-1.5039-3.832-3.2539-6.0195-5.1016l-0.35547-0.30078-1.0273-20.734c-0.66406-8.1797-7.8477-12.359-14.539-12.25-5.793 0.09375-10.527 3.0703-12.668 7.6406-3.4297-0.24609-8.2031 0.089844-12.086 2.9844-1.4453 1.0781-3.0391 2.7852-4.1914 5.3945-1.3242-0.32422-2.7344-0.49609-4.1445-0.50391-4.7461 0.058594-10.246 2.3359-12.762 8.082-2.2383-0.21484-4.6172 0.019531-6.625 0.69141-4.1055 1.3867-6.8711 4.3672-8.0195 8.5469-0.8125-0.48047-1.6133-0.97656-2.4883-1.3438-2.3281-0.96094-4.7109-1.4102-7.0273-1.375l-0.003906-51.641h61.434l54.43 14.941zm-76.484 15.434c0.78516-2.6406 0.8125-5.4141 0.054687-8.1836 0-0.03125 0.011719-0.054687 0.007813-0.085937l-0.5625-6.3281c-0.070313-3.2383 1.2148-4.0742 1.6367-4.3516 1.0625-0.69141 2.5156-0.82812 3.6445-0.75391l1.6211 18.945c0.070312 1.3906 0.39844 2.7188 0.94141 3.9648-0.69922 0.58203-1.5039 0.76953-2.1758 0.80078-1.7422-1.6914-3.5781-3.0273-5.168-4.0078zm-173.8-260.29h271.07v177.75h-271.07zm-46.691 197.86c-3.6797-0.76562-7.5469 0.074219-10.621 2.2852-2.8711 2.0859-6.5195 4.918-10.758 8.3203l1.3125-25.93c0.5625-7.207 7.6211-9.0508 11.5-8.9688 3.8633 0.058594 10.488 1.9805 10.82 8.6211v16.375c-0.72266-0.28516-1.4648-0.53906-2.2539-0.70312zm12.719 46.156c-3.6875-1.125-6.0391-4.3008-7.0156-9.0469l0.45312-0.5625c3.8945-4.8164 5.9805-10.812 5.875-16.867-0.042969-2.5703-0.36328-4.8438-0.89062-6.9766l-0.003906-24.645c3.8633-0.44141 9.4844-0.33594 13.168 2.4258 2.9375 2.207 4.4336 5.875 4.5781 10.828l-2.3438 38.289c-0.11719 1.0977-0.64062 2.2383-1.4727 3.2031-2.7344 3.1484-8.1602 4.625-12.348 3.3516zm27.629 6.293c-2.3594-0.58203-5.3359-2.1211-6.9961-6.0391 1.1016-1.8438 1.8125-3.875 2.043-6.082l2.2852-37.566c1.6797-0.83203 7.207-1.2539 12.199 1 3.6445 1.6445 5.5586 4.0352 5.6914 7.1055l-2.9688 34.91c-0.050781 1.4961-0.60937 2.832-1.668 3.9727-2.3516 2.5469-6.707 3.6523-10.586 2.6992zm25.094 4.1055c-1.5625-0.16016-4.1641-0.87109-6.0117-3.4648 1.25-2.1094 1.9727-4.4297 2.0469-6.7891l2.5078-29.391c2.3164-1.0703 7.4961-2.2695 10.727-0.67188 0.83203 0.41406 3.3555 1.668 3.1094 7.6875l-2.207 25.008c-0.17969 1.4336-0.62109 2.6797-1.3672 3.75-1.8008 2.6758-5.3125 4.2461-8.8047 3.8711zm128.86 10.297c-2.6172-0.0625-5.9531-0.050781-9.7148 0.027344l12.879-15.305c0.63672-0.73828 1.3359-1.2656 2.2188-1.6797 2.4023-1.1289 4.9023-0.41406 6.1797 0.11719 2.7656 1.1406 5.1406 3.5156 6.0469 6.0273 0.73828 2.0625 0.47266 4.0234-0.6875 5.6836l-7.625 10.043c-0.20703-0.28516-0.37891-0.59375-0.61719-0.86328-2.207-2.5039-5.3789-3.9805-8.6797-4.0508zm6.8242 24.102c1.25-1.7383 2.2227-3.4531 3.0234-5.2266l11.855-15.621c1.375 0.86328 2.9844 2.0469 4.3281 3.5664 2.3516 2.6289 4.4531 6.4805 0.035156 12.664l-20.859 24.184c-0.64062 0.68359-1.5312 0.98828-2.207 1.125-2.7344 0.58203-6.875-0.625-9.0742-3.6562-1.9922-2.75-1.4023-5.8906-0.25391-8.4336l0.35547-0.089844c5.1523-1.2852 9.6875-4.293 12.797-8.5117zm7.9141 71.375c-2.3203 3.0625-4.4375 4.7031-6.8125 5.6445v-31.641c1.5039 0.78125 3.1055 1.332 4.7461 1.6484 0.32812 4.3945 2.5195 8.418 6.3359 11.164 1.5273 1.0977 3.1992 1.8828 4.9219 2.3945zm32.34-36.348-13.984 15.363c-0.33594 0.33594-0.66797 0.65234-1.0312 0.91016-0.027344 0.019532-0.039063 0.054688-0.070313 0.070313-2.5859 1.7422-5.7773 1.0625-7.793-0.39062-0.89062-0.64062-2.6133-2.2539-2.6914-4.9219 1.7969-0.8125 3.3828-1.9648 4.6055-3.4531l17.855-19.766c1.543 0.76562 3.875 2.4453 4.8555 4.918 0.33203 0.83984 1.3438 3.3906-1.7461 7.2695zm-8.0312-28.883c1.8945 2.7695 1.8125 5.7617-0.24609 9.1445l-19.422 21.504c-0.69141 0.84375-1.5898 1.3672-2.6875 1.5586-3.1562 0.55859-7.6289-1.7383-8.9805-5.7422-0.45703-1.2891-0.51953-2.668-0.21875-4.0977 1.625-0.70312 3.0938-1.6875 4.332-3.0156l20.441-23.719c1.2617 0.16797 4.7812 1.4453 6.7812 4.3672zm8.0117-33.199c-1.832 0.45703-3.9805-0.066407-4.9648-1.1484-0.39844-0.45312-0.59375-0.93359-0.63672-1.7031l-1.8359-21.465c0.34375-3.0117 1.7852-3.9609 2.8672-4.4141 1.8984-0.80078 4.0273-0.44531 5.0273-0.027344l1.4023 23.027c0.125 1.2695 0.50391 2.4766 1.043 3.5664-0.65625 1.1133-1.6133 1.8516-2.9023 2.1641zm17.188-3.9297c-2.2227 0.65625-4.7852-0.31641-6.0469-1.7773-0.35156-0.36719-0.41797-0.67969-0.42188-0.71484l-1.4609-23.711c0.097657-4.1445 1.6523-5.3203 2.1641-5.707 1.4609-1.1016 3.668-1.3359 5.5664-1.2734v13.883c-0.28906 1.2695-0.48438 2.6445-0.53516 4.25-0.10938 4.0664 1.2656 8.1094 3.8164 11.395-0.53516 1.9453-1.5586 3.1914-3.082 3.6562zm30.723 43.699c-3.0156 0.42188-6.2031-0.80469-7.9648-3.0742-0.82031-1.043-1.3164-2.2969-1.4727-3.6094l-2.0625-23.074c-0.035156-1.5898 0.11719-2.8984 0.46094-4 0.023438-0.070312 0.03125-0.15234 0.054688-0.22266 0.027344-0.089844 0.050781-0.18359 0.074219-0.28516v-0.003906c0.72266-2.2695 2.1758-3.7852 4.4375-4.6367 2.5391-0.96094 5.3633-0.78516 7.0156-0.40625l2.5312 29.883c0.078125 2.2852 0.74219 4.4531 1.8633 6.4492-1.4453 2.0078-3.3867 2.7617-4.9375 2.9805zm22.988-3.7969c-3.5234 0.86719-7.4609-0.13672-9.5352-2.3945-0.95703-1.0664-1.4453-2.2266-1.5039-3.7656l-2.7188-32.152c0.10547-1.0938 0.33594-2.168 0.66406-3.1523 0.74219-2.1094 1.9766-3.707 3.6719-4.7422 4.5-2.7344 10.391-1.1914 11.691 0.019532l2.1055 35.332c0.17969 1.9492 0.83594 3.8398 1.875 5.5781-1.5234 3.4062-4.1523 4.7617-6.25 5.2773zm45.633-70.84c3.6953-0.085938 9.9062 1.5898 10.402 7.9531l1.1562 23.543c-3.7227-2.9805-6.9531-5.4844-9.5078-7.3359-2.957-2.1055-6.6719-2.8789-10.199-2.1367-0.57031 0.12109-1.0938 0.32812-1.625 0.51562l-0.003906-14.578c0.28125-5.7773 5.4453-7.8984 9.7773-7.9609zm-18.664 11.473v22.613c-0.49609 2.0547-0.80078 4.1914-0.84375 6.5352-0.10547 5.6445 1.8477 11.277 5.5195 15.895l0.35547 0.44922c-0.91016 4.2109-3.0156 7.0312-6.293 8.0312-3.7852 1.1484-8.6875-0.17969-11.18-3.0547-0.53906-0.60938-1.2031-1.582-1.2969-2.6133l-2.1289-35.441c0.19531-7.9688 3.668-10.344 6.2617-11.434 3.1992-1.3477 6.9609-1.2734 9.6055-0.98047zm-14.73-6.3945c-3.3125 1.7773-6.7148 4.9023-8.582 10.391-2.0938-0.75391-4.5859-1.2227-7.2305-1.2188l18.129-37.172 9.0938 2.4961zm90.145-23.551c-1.0859 0.78906-2.3906 1.7969-3.7852 2.8945l0.61328-12.426c0.30469-4.0234 4.9297-4.0469 5.4219-4.0625 0.50391 0.003906 4.9023 0.17969 5.082 3.7188v8.0977c-2.5625-0.36719-5.2031 0.23828-7.332 1.7773zm16.016 27.195c-1.5234-0.45703-2.5469-1.7109-3.0898-3.6719 2.5625-3.3164 3.9297-7.3398 3.8164-11.391-0.042968-1.6211-0.23438-3.0547-0.52734-4.418l-0.003906-13.723c1.8633-0.058593 4.0039 0.17969 5.4375 1.2578 0.51172 0.38281 2.0664 1.5547 2.1719 5.3633l-1.4102 23.906c-0.019531 0.20312-0.089844 0.51562-0.60938 1.0742-1.0781 1.2812-3.6055 2.25-5.7852 1.6016zm17.059 3.9141c-1.2695-0.3125-2.2227-1.0469-2.8711-2.1562 0.5625-1.1328 0.9375-2.3711 1.0664-3.7266l1.3359-22.836c0.51172-0.21484 1.3359-0.44531 2.4531-0.44531 3.1836 0 4.9805 1.6406 5.3594 4.875l-1.8398 21.602c-0.03125 0.61719-0.22266 1.1172-0.57031 1.4922-1.0469 1.1367-3.1133 1.6445-4.9336 1.1953zm14.648 2.4141c-0.46094-0.12891-0.83984-0.37891-1.1875-0.67188 0.51953-1.2031 0.83594-2.4922 0.90625-3.8203l1.6289-19.09c1.0938-0.0625 2.4883 0.070312 3.5156 0.74219 0.42188 0.27734 1.6992 1.1094 1.6445 4.0742l-1.3672 15.621c-0.10938 0.97656-0.57422 1.7852-1.3555 2.3945-1.0586 0.80078-2.5469 1.0938-3.7852 0.75z"/>
  <path d="m350 84.43c2.4531 0 4.4453-1.9922 4.4453-4.4453v-75.539c0-2.4531-1.9922-4.4453-4.4453-4.4453s-4.4453 1.9922-4.4453 4.4453v75.543c0.003907 2.4531 1.9922 4.4414 4.4453 4.4414z"/>
  <path d="m230.58 104.37c0.8125 1.457 2.3242 2.2812 3.8867 2.2812 0.73047 0 1.4727-0.18359 2.1562-0.55859 2.1406-1.1914 2.918-3.8984 1.7227-6.043l-22.219-39.992c-1.1914-2.1406-3.8945-2.918-6.043-1.7227-2.1406 1.1914-2.918 3.8984-1.7227 6.043z"/>
  <path d="m128.89 162.89c0.87891 1.0117 2.1172 1.5312 3.3594 1.5312 1.0312 0 2.0664-0.35938 2.9062-1.0859 1.8516-1.6094 2.0547-4.418 0.44922-6.2695l-57.77-66.656c-1.6055-1.8594-4.4141-2.0547-6.2695-0.44922-1.8516 1.6094-2.0547 4.418-0.44922 6.2695z"/>
  <path d="m463.38 106.09c0.68359 0.37891 1.4258 0.55859 2.1562 0.55859 1.5625 0 3.0742-0.82813 3.8867-2.2852l22.219-39.992c1.1953-2.1445 0.41797-4.8516-1.7227-6.043-2.1445-1.1953-4.8516-0.41797-6.043 1.7227l-22.219 39.992c-1.1953 2.1484-0.41797 4.8555 1.7227 6.0469z"/>
  <path d="m567.74 164.42c1.2461 0 2.4844-0.51953 3.3594-1.5312l57.77-66.656c1.6055-1.8516 1.4023-4.6602-0.44922-6.2695-1.8516-1.6055-4.6602-1.4102-6.2695 0.44922l-57.77 66.656c-1.6055 1.8516-1.4023 4.6602 0.44922 6.2695 0.83984 0.72266 1.8789 1.082 2.9102 1.082z"/>

 </g>
</svg>